<svg width="256" height="232" viewBox="0 0 256 232" fill="none" xmlns="http://www.w3.org/2000/svg">
<g clip-path="url(#clip0_38_46)">
<path d="M35.0271 175.379C44.4148 181.938 59.6353 181.938 69.0232 175.379C78.4105 168.82 78.4105 158.186 69.0232 151.627C59.6353 145.068 44.4148 145.068 35.0271 151.627C25.6394 158.186 25.6394 168.82 35.0271 175.379Z" fill="#00BC7D"/>
<path d="M132.463 86.3107C146.545 96.1487 169.375 96.1487 183.457 86.3107C197.538 76.4721 197.538 60.5213 183.457 50.6831C169.375 40.8449 146.545 40.8449 132.463 50.6831C118.382 60.5213 118.382 76.4721 132.463 86.3107Z" fill="#00BC7D"/>
<path d="M80.7399 130.845C92.4744 139.043 111.5 139.043 123.235 130.845C134.969 122.646 134.969 109.354 123.235 101.155C111.5 92.9569 92.4744 92.9569 80.7399 101.155C69.0053 109.354 69.0053 122.646 80.7399 130.845Z" fill="#00BC7D"/>
<path d="M5.28058 124.907C12.3213 129.826 23.7367 129.826 30.7775 124.907C37.8182 119.988 37.8182 112.013 30.7775 107.093C23.7367 102.174 12.3213 102.174 5.28058 107.093C-1.7602 112.013 -1.76019 119.988 5.28058 124.907Z" fill="#00BC7D"/>
<path d="M80.7399 35.8384C92.4744 44.0369 111.5 44.0369 123.235 35.8384C134.969 27.6399 134.969 14.3474 123.235 6.14891C111.5 -2.04963 92.4744 -2.04964 80.7399 6.14891C69.0053 14.3474 69.0053 27.6399 80.7399 35.8384Z" fill="#00BC7D"/>
<path d="M35.0271 80.3728C44.4148 86.9316 59.6353 86.9316 69.0232 80.3728C78.4105 73.8139 78.4105 63.1797 69.0232 56.6211C59.6353 50.0623 44.4148 50.0623 35.0271 56.6211C25.6394 63.1797 25.6394 73.8139 35.0271 80.3728Z" fill="#00BC7D"/>
<path d="M80.7399 225.851C92.4744 234.05 111.5 234.05 123.235 225.851C134.969 217.653 134.969 204.36 123.235 196.162C111.5 187.963 92.4744 187.963 80.7399 196.162C69.0053 204.36 69.0053 217.653 80.7399 225.851Z" fill="#00BC7D"/>
<path d="M194.445 133.814C208.527 143.652 231.357 143.652 245.439 133.814C259.521 123.976 259.521 108.025 245.439 98.1867C231.357 88.348 208.527 88.348 194.445 98.1867C180.363 108.025 180.363 123.976 194.445 133.814Z" fill="#00BC7D"/>
<path d="M132.463 181.317C146.545 191.155 169.375 191.155 183.457 181.317C197.538 171.479 197.538 155.528 183.457 145.689C169.375 135.851 146.545 135.851 132.463 145.689C118.382 155.528 118.382 171.479 132.463 181.317Z" fill="#00BC7D"/>
</g>
<defs>
<clipPath id="clip0_38_46">
<rect width="256" height="232" fill="white"/>
</clipPath>
</defs>
</svg>
